<?xml version="1.0" standalone="no"?>
<!DOCTYPE svg PUBLIC "-//W3C//DTD SVG 20010904//EN"
 "http://www.w3.org/TR/2001/REC-SVG-20010904/DTD/svg10.dtd">
<svg version="1.0" xmlns="http://www.w3.org/2000/svg"
 width="461.000000pt" height="340.000000pt" viewBox="0 0 461.000000 340.000000"
 preserveAspectRatio="xMidYMid meet">

<g transform="translate(0.000000,340.000000) scale(0.100000,-0.100000)"
fill="#000000" stroke="none">
<path d="M3495 3355 c-225 -36 -445 -157 -568 -313 -52 -67 -117 -185 -137
-249 -7 -24 -16 -43 -20 -43 -4 0 -69 27 -146 61 -102 45 -146 60 -169 56 -16
-3 -249 -102 -517 -221 -267 -119 -489 -216 -492 -216 -4 0 -5 125 -4 278 l3
277 488 3 487 2 0 175 0 175 -1182 0 c-651 0 -1189 -4 -1196 -8 -9 -7 -12 -48
-10 -173 l3 -164 490 -5 490 -5 5 -1350 5 -1350 205 0 205 0 3 308 c1 169 6
307 11 307 5 0 13 8 17 18 5 9 11 210 14 446 l5 430 474 177 c261 97 481 180
488 185 9 6 -12 20 -70 45 l-82 36 -346 -130 -346 -129 -79 35 -79 34 0 113 0
112 425 189 c234 105 464 207 511 228 l87 39 138 -62 139 -62 -2 -35 c-3 -66
20 -245 39 -309 39 -125 135 -258 249 -344 l61 -46 -33 -14 c-19 -8 -155 -69
-304 -136 -148 -66 -277 -122 -285 -122 -8 0 -129 50 -268 111 l-254 113 -89
-33 c-50 -17 -87 -35 -82 -40 4 -4 154 -72 332 -150 295 -129 327 -141 370
-137 30 3 144 48 326 128 154 67 299 131 323 141 l42 18 0 -223 0 -223 -77
-57 c-278 -205 -631 -267 -936 -165 -131 44 -272 121 -365 201 l-32 27 0 221
0 221 -22 -7 c-13 -3 -47 -15 -75 -26 l-53 -19 0 -224 0 -223 53 -47 c385
-338 898 -409 1339 -183 101 51 249 155 292 205 l25 28 1 253 c0 138 1 252 3
252 14 0 523 -173 562 -190 82 -38 183 -110 226 -161 62 -75 82 -129 87 -239
7 -169 -40 -300 -148 -409 -101 -102 -239 -157 -426 -168 -212 -12 -400 45
-594 181 -160 113 -172 120 -205 120 -18 0 -43 -7 -57 -16 -26 -17 -148 -209
-148 -233 0 -15 67 -76 166 -151 85 -65 302 -169 414 -199 414 -111 847 -27
1102 213 201 190 297 437 286 738 -5 148 -32 243 -94 342 -116 181 -276 286
-632 413 l-64 22 30 23 c40 31 56 74 49 132 -8 77 -40 97 -412 262 -180 79
-329 150 -332 156 -9 24 28 137 63 195 93 153 262 230 504 230 195 0 315 -39
509 -166 91 -59 136 -69 179 -39 12 8 48 65 78 126 l55 110 -27 29 c-41 43
-160 123 -250 168 -205 102 -505 145 -749 106z m-42 -1066 c152 -68 277 -126
277 -130 0 -3 -32 -20 -72 -36 l-71 -30 -61 24 c-167 68 -290 152 -340 232
-31 50 -39 75 -24 68 7 -2 138 -60 291 -128z"/>
<path d="M1050 30 c0 -20 7 -20 1555 -20 1548 0 1555 0 1555 20 0 20 -7 20
-1555 20 -1548 0 -1555 0 -1555 -20z"/>
</g>
</svg>
